<svg xmlns="http://www.w3.org/2000/svg" xmlns:xlink="http://www.w3.org/1999/xlink" width="384" zoomAndPan="magnify" viewBox="0 0 288 287.999989" height="384" preserveAspectRatio="xMidYMid meet" version="1.0"><path fill="#eef2f5" d="M 285.160156 143.984375 C 285.160156 66.011719 221.953125 2.808594 143.984375 2.808594 C 66.011719 2.808594 2.808594 66.011719 2.808594 143.984375 C 2.808594 221.953125 66.011719 285.160156 143.984375 285.160156 C 221.953125 285.160156 285.160156 221.953125 285.160156 143.984375 " fill-opacity="1" fill-rule="nonzero"/><path fill="#ef4444" d="M 143.984375 5.613281 C 67.6875 5.613281 5.613281 67.6875 5.613281 143.984375 C 5.613281 220.28125 67.6875 282.351562 143.984375 282.351562 C 220.28125 282.351562 282.351562 220.28125 282.351562 143.984375 C 282.351562 67.6875 220.28125 5.613281 143.984375 5.613281 Z M 143.984375 287.96875 C 105.523438 287.96875 69.367188 272.992188 42.171875 245.796875 C 14.976562 218.601562 0 182.445312 0 143.984375 C 0 105.523438 14.976562 69.367188 42.171875 42.171875 C 69.367188 14.976562 105.523438 0 143.984375 0 C 182.445312 0 218.601562 14.976562 245.796875 42.171875 C 272.992188 69.367188 287.96875 105.523438 287.96875 143.984375 C 287.96875 182.445312 272.992188 218.601562 245.796875 245.796875 C 218.601562 272.992188 182.445312 287.96875 143.984375 287.96875 " fill-opacity="1" fill-rule="nonzero"/><path fill="#f8fafb" d="M 273.289062 143.984375 C 273.289062 72.570312 215.398438 14.679688 143.984375 14.679688 C 72.570312 14.679688 14.679688 72.570312 14.679688 143.984375 C 14.679688 215.398438 72.570312 273.289062 143.984375 273.289062 C 215.398438 273.289062 273.289062 215.398438 273.289062 143.984375 " fill-opacity="1" fill-rule="nonzero"/><path fill="#fefefe" d="M 263.984375 143.984375 C 263.984375 77.710938 210.257812 23.984375 143.984375 23.984375 C 77.710938 23.984375 23.984375 77.710938 23.984375 143.984375 C 23.984375 210.257812 77.710938 263.984375 143.984375 263.984375 C 210.257812 263.984375 263.984375 210.257812 263.984375 143.984375 " fill-opacity="1" fill-rule="nonzero"/><path fill="#f4d26c" d="M 154.980469 123.292969 C 155.660156 124.914062 156.929688 126.175781 158.558594 126.84375 C 159.363281 127.175781 160.210938 127.335938 161.058594 127.335938 C 161.917969 127.335938 162.78125 127.167969 163.601562 126.824219 L 170.886719 123.769531 C 174.238281 122.367188 175.820312 118.5 174.414062 115.148438 L 172.300781 110.097656 C 171.683594 108.625 169.992188 107.929688 168.519531 108.550781 C 167.046875 109.164062 166.355469 110.855469 166.972656 112.328125 L 169.089844 117.378906 C 169.195312 117.636719 169.152344 117.863281 169.089844 118.003906 C 169.035156 118.144531 168.910156 118.335938 168.65625 118.441406 L 161.371094 121.496094 C 161.113281 121.605469 160.890625 121.558594 160.75 121.5 C 160.605469 121.4375 160.414062 121.316406 160.308594 121.058594 L 158.1875 116.007812 C 157.574219 114.539062 155.878906 113.84375 154.410156 114.460938 C 152.9375 115.074219 152.246094 116.769531 152.863281 118.238281 L 154.980469 123.292969 " fill-opacity="1" fill-rule="nonzero"/><path fill="#f4d26c" d="M 126.867188 94.953125 L 132.839844 92.453125 C 134.976562 91.558594 135.988281 89.09375 135.09375 86.957031 L 130.675781 76.414062 C 130.058594 74.945312 128.367188 74.246094 126.898438 74.867188 C 125.425781 75.484375 124.734375 77.175781 125.347656 78.648438 L 129.15625 87.734375 L 126.089844 89.015625 L 122.285156 79.929688 C 121.667969 78.460938 119.976562 77.765625 118.503906 78.382812 C 117.03125 79 116.339844 80.691406 116.957031 82.160156 L 121.375 92.703125 C 122.046875 94.3125 123.609375 95.28125 125.25 95.28125 C 125.789062 95.28125 126.339844 95.175781 126.867188 94.953125 " fill-opacity="1" fill-rule="nonzero"/><path fill="#ef4444" d="M 138.886719 205.652344 C 140.355469 205.035156 141.046875 203.34375 140.433594 201.875 L 101.960938 110.238281 C 99.359375 104.039062 93.589844 99.746094 86.902344 99.039062 L 57.984375 95.980469 C 56.398438 95.8125 54.976562 96.964844 54.808594 98.546875 C 54.640625 100.132812 55.792969 101.554688 57.378906 101.722656 L 86.296875 104.785156 C 90.886719 105.269531 94.851562 108.214844 96.636719 112.472656 L 135.105469 204.105469 C 135.570312 205.210938 136.640625 205.878906 137.769531 205.878906 C 138.144531 205.878906 138.523438 205.804688 138.886719 205.652344 " fill-opacity="1" fill-rule="nonzero"/><path fill="#ef4444" d="M 216.097656 179.933594 L 151.140625 207.238281 C 149.671875 207.855469 148.980469 209.550781 149.597656 211.019531 C 150.0625 212.125 151.136719 212.789062 152.261719 212.789062 C 152.632812 212.789062 153.015625 212.71875 153.382812 212.5625 L 218.335938 185.257812 C 219.804688 184.636719 220.496094 182.945312 219.878906 181.472656 C 219.257812 180.003906 217.566406 179.3125 216.097656 179.933594 " fill-opacity="1" fill-rule="nonzero"/><path fill="#ef4444" d="M 95.199219 160.449219 L 64.949219 160.449219 C 63.351562 160.449219 62.058594 161.742188 62.058594 163.335938 C 62.058594 164.929688 63.351562 166.222656 64.949219 166.222656 L 95.199219 166.222656 C 96.792969 166.222656 98.085938 164.929688 98.085938 163.335938 C 98.085938 161.742188 96.792969 160.449219 95.199219 160.449219 " fill-opacity="1" fill-rule="nonzero"/><path fill="#ef4444" d="M 151.980469 190.265625 L 127.558594 131.96875 L 199.832031 101.691406 L 224.238281 160.035156 Z M 109.339844 88.484375 L 140.523438 75.417969 L 150.597656 99.46875 L 119.449219 112.519531 C 119.445312 112.519531 119.445312 112.519531 119.445312 112.519531 L 119.414062 112.53125 Z M 151.660156 99.027344 L 151.65625 99.027344 C 151.65625 99.027344 151.65625 99.027344 151.660156 99.027344 Z M 193.9375 87.613281 L 197.605469 96.363281 L 125.335938 126.640625 L 121.679688 117.847656 Z M 229.585938 157.757812 L 204.046875 96.796875 L 199.265625 85.382812 C 198.664062 83.953125 197.542969 82.839844 196.109375 82.25 C 194.671875 81.664062 193.089844 81.667969 191.660156 82.269531 L 155.925781 97.238281 L 145.40625 72.128906 C 144.421875 69.777344 141.707031 68.664062 139.351562 69.648438 L 106.050781 83.601562 C 104.910156 84.078125 104.023438 84.972656 103.554688 86.113281 C 103.085938 87.257812 103.09375 88.515625 103.570312 89.65625 L 114.53125 115.828125 C 114.839844 116.554688 115.316406 117.160156 115.898438 117.625 C 115.859375 118.457031 115.992188 119.308594 116.332031 120.125 L 121.117188 131.539062 L 146.652344 192.5 C 147.253906 193.933594 148.375 195.042969 149.8125 195.632812 C 150.519531 195.921875 151.269531 196.066406 152.015625 196.066406 C 152.773438 196.066406 153.535156 195.917969 154.257812 195.613281 L 226.46875 165.363281 C 227.902344 164.765625 229.015625 163.640625 229.601562 162.203125 C 230.191406 160.769531 230.183594 159.191406 229.585938 157.757812 " fill-opacity="1" fill-rule="nonzero"/><path fill="#ef4444" d="M 182.183594 153.046875 C 181.570312 151.578125 179.878906 150.878906 178.40625 151.5 L 154.195312 161.640625 C 152.726562 162.257812 152.03125 163.945312 152.648438 165.417969 C 153.113281 166.527344 154.183594 167.191406 155.3125 167.191406 C 155.683594 167.191406 156.0625 167.121094 156.425781 166.96875 L 180.636719 156.824219 C 182.109375 156.210938 182.800781 154.515625 182.183594 153.046875 " fill-opacity="1" fill-rule="nonzero"/><path fill="#ef4444" d="M 140.390625 213.308594 L 140.347656 213.308594 C 138.753906 213.308594 137.480469 214.601562 137.480469 216.195312 C 137.480469 217.792969 138.796875 219.085938 140.390625 219.085938 C 141.984375 219.085938 143.28125 217.792969 143.28125 216.195312 C 143.28125 214.601562 141.984375 213.308594 140.390625 213.308594 " fill-opacity="1" fill-rule="nonzero"/><path fill="#f4d26c" d="M 169.40625 165.367188 L 157.796875 170.230469 C 156.324219 170.847656 155.632812 172.539062 156.25 174.011719 C 156.714844 175.117188 157.785156 175.785156 158.914062 175.785156 C 159.285156 175.785156 159.664062 175.710938 160.027344 175.558594 L 171.640625 170.691406 C 173.113281 170.078125 173.804688 168.386719 173.1875 166.914062 C 172.574219 165.445312 170.878906 164.75 169.40625 165.367188 " fill-opacity="1" fill-rule="nonzero"/><path fill="#f4d26c" d="M 140.371094 226.765625 C 134.542969 226.765625 129.800781 222.023438 129.800781 216.195312 C 129.800781 210.367188 134.542969 205.628906 140.371094 205.628906 C 146.199219 205.628906 150.9375 210.367188 150.9375 216.195312 C 150.9375 222.023438 146.199219 226.765625 140.371094 226.765625 Z M 140.371094 199.851562 C 131.359375 199.851562 124.027344 207.183594 124.027344 216.195312 C 124.027344 225.207031 131.359375 232.539062 140.371094 232.539062 C 149.378906 232.539062 156.714844 225.207031 156.714844 216.195312 C 156.714844 207.183594 149.378906 199.851562 140.371094 199.851562 " fill-opacity="1" fill-rule="nonzero"/><path fill="#f4d26c" d="M 50.390625 134.5 C 50.390625 132.90625 49.101562 131.613281 47.503906 131.613281 L 42.335938 131.613281 C 40.742188 131.613281 39.449219 132.90625 39.449219 134.5 C 39.449219 136.097656 40.742188 137.390625 42.335938 137.390625 L 47.503906 137.390625 C 49.101562 137.390625 50.390625 136.097656 50.390625 134.5 " fill-opacity="1" fill-rule="nonzero"/><path fill="#f4d26c" d="M 61.1875 137.390625 L 85.585938 137.390625 C 87.179688 137.390625 88.472656 136.097656 88.472656 134.5 C 88.472656 132.90625 87.179688 131.613281 85.585938 131.613281 L 61.1875 131.613281 C 59.59375 131.613281 58.300781 132.90625 58.300781 134.5 C 58.300781 136.097656 59.59375 137.390625 61.1875 137.390625 " fill-opacity="1" fill-rule="nonzero"/><path fill="#f4d26c" d="M 59.292969 187.359375 L 51.949219 187.359375 C 50.351562 187.359375 49.0625 188.652344 49.0625 190.246094 C 49.0625 191.839844 50.351562 193.136719 51.949219 193.136719 L 59.292969 193.136719 C 60.886719 193.136719 62.179688 191.839844 62.179688 190.246094 C 62.179688 188.652344 60.886719 187.359375 59.292969 187.359375 " fill-opacity="1" fill-rule="nonzero"/><path fill="#f4d26c" d="M 92.703125 187.359375 L 73.664062 187.359375 C 72.066406 187.359375 70.777344 188.652344 70.777344 190.246094 C 70.777344 191.839844 72.066406 193.136719 73.664062 193.136719 L 92.703125 193.136719 C 94.296875 193.136719 95.589844 191.839844 95.589844 190.246094 C 95.589844 188.652344 94.296875 187.359375 92.703125 187.359375 " fill-opacity="1" fill-rule="nonzero"/></svg>